<mxfile host="app.diagrams.net" modified="2021-03-14T06:54:50.054Z" agent="5.0 (Windows NT 10.0; Win64; x64) AppleWebKit/537.36 (KHTML, like Gecko) Chrome/89.0.4389.82 Safari/537.36" etag="bEB1CvnTJEzDl2uZALBV" version="14.4.7" type="github">
  <diagram id="CmLAoZcHxd_qa2twIJXl" name="第 1 页">
    <mxGraphModel dx="1422" dy="802" grid="1" gridSize="10" guides="1" tooltips="1" connect="1" arrows="1" fold="1" page="1" pageScale="1" pageWidth="827" pageHeight="1169" math="0" shadow="0">
      <root>
        <mxCell id="0" />
        <mxCell id="1" parent="0" />
        <mxCell id="15tyrJEF0TninloIky0N-1" value="" style="shape=image;verticalLabelPosition=bottom;labelBackgroundColor=#ffffff;verticalAlign=top;aspect=fixed;imageAspect=0;image=data:image/png,iVBORw0KGgoAAAANSUhEUgAAAEAAAABACAYAAACqaXHeAAAAOXRFWHRTb2Z0d2FyZQBNYXRwbG90bGliIHZlcnNpb24zLjMuNCwgaHR0cHM6Ly9tYXRwbG90bGliLm9yZy8QVMy6AAAACXBIWXMAAC4jAAAuIwF4pT92AAAWb0lEQVR4nJWbSZMcx3XHf7lVV6+zAZghdmIhQZCyTEuUKNvhkCWHZPukgy8++ODP46/hkxwO2xdZoYvDcmgN01poUiQIggBhADOD2XurrqrM9KH2XgAqIyamu7oqM9/Lt/zfUuIbf/MPntqQ1qMnDpk4vBR4JXBK5D+Cl4JVwysQNvssnF95HzTnUTNXfha2ek44j5diYa7i+rJ1ROrBeYR1COsW5sS5xv1axYsbdUrglAIyhsh8AkdzM9IuPlss1mDckiFcNq+wHuH8SoYJ5zOi5odecu+S+8T8HqVsTtNYOGfOMsJedH3ZYsJ6VI0Z5RL55/m5VklWc38+n9uBk1A8U7/e+O+zE58jur4fTU0iik0tcG3uoVXDBrIxx/ypeiUahJfS8gK1AvCByCWBkligFPX6WCB+yajTp+eJXiaKXgqE9UuZUBf5ukjX56rrcvF/gTkvYEKpBq5YSy6/b5nOwyIjColwDi2T5VxaZmReJBnLflu6yRrxhc56LRauLYw5MV+Yd8X1lSNnil554i8wSquuv4gIHzRPuH6iIq1vbM6qL7HmBdOXScIXOgjnEGnOgFIk65teYmHLBZa4pPJzMYfzpYHyuiK8Iea6ItxrUWO6aDDnZWPpyeenWxDptWx8rw9dEO+1KAlYOME5hjREN3+2MeaI91KUmGLZvC7fYGkngupQvFR4JRHW4VWT8DrxLzr5ZYRXDCiAwxI8UBCzUi/nxgIjqIivb1I4j4xdecqSptotk4B5cfdKIuOUhbHC8jf3KSsVEIktfyg46pWsFqyJ8/yYZ0xxki+zEyJ2yDitdDpe7V2y/YgGAyqJkL+/8SvmyJmg60SvHMsIeonvbtiGmhsrRLcOUhoMn59nCYHz4r/w+wtEfv53Pc9ZAG9UwyYsG3X9LghUuUiqaZLdVDdGtQ37lsaFBtsNiTYN0aYkbQucAZ9vRziQCeipr/4mDjNJEXHGADlN8Fpm+y3cMRKvQcyWqIeS2T6cA6PxWq6w9wXqeskQqUdQGUSncyslRXna3ijSribtSGYDxWxdEK9BvOawaxbdndHvTWmbnHmiYnpsFdPYcDQM4TigdWwITg1m5GmdOMKjFJm6kiHCOlygEFbgjSqlbP4AMLo8mNUO7yViPy8dInYEx1OQEts2xJsB0YYi2pRE5zyz7ZTehVOubRzzxmCXO+1n7JgTuiLmxHWInCGUSWPOyBnGrsXn8RafTzf55OQ8e0cD0rOA1r6ivduifegIj1P0MCnVwgU5gdYhYzKJyOf0rYp4qDm4ukFZahdW6XxhJKXAdlvE6wGTbc3okmB6JaW3fcbdred8ae0pb4RPuR3ssSljNvNo06BIGDPzjth7khpfk3zbT4N9dsM17vY2+WzrPJ+PN/js/Cana32SpxJnNB1AD6u9ei0gBq9cqRYLw7rMBjTRVkV8YWkbhM6P/JoNFUlfMbyoGd5wdG+d8BeX7/PV3me8FuxxWU/pS0VHBCQ+IMEydBawBKKa1wgaTADoy4jQJGyqEVfMEYfdHh90L/Hb7kWehFt4aYCcCeNMlVbarzwOKKRCzxNejHk345VcyQSvBTbIdDy6APrqmO9c/Yi/2/wZ17QviR75hJmPGDtPguDItjlzIUe2V4q/ESldES+sEYqEgYwYyIgdfcolc8yr7ef8QL3FQy4gU4NMNG3rUZFFJPYLeQq9jPhlnqG8xy6qhpcizxaBDTxb/QnXwwNuaYkRisRb7qeO3XSdI9tjN11jPx7wPO7zeLzO/qgHQMukrLUiNlsTzrVGbJgJG3rMphoxUBHrckJfRnRkQl9m3/e3BpxOQ86GG+ipRM8UMnXIqOZ1lEAgM+tfB0q2hgMWGJBb8oL4Jux0Dd/tpSANJdGWINlKeKV7Rl9O2bMxe7bNe9FNfnJ8i/sn5zg+7ZIODfpUY04FKs4Y5yVEGg7bnntdj++ndNamXFw/4/bgOa91drkeHBCKBCMc/VxirocH3Nla5xc7HaJRm9aJxAwligrQZXt3Gfokjw1yd9gwDQsxf82dFb8XHC2ZpSuMLxzIieLTo3N8373Df4Rv8MHhDgfPB6j9ABWBdgJjAQdmkuUQnan8vhkJ3LEg7QZMtxQPZyYTVWHLU++QEHlF4hV9OeVS+4ReL2Lca5G2MnU0tYP05Ewo6IDMPdolblDY3H8jF06+DkkLsFTgfGk9ZuTpPJXMhuvc0+t8LEFHgs4UzDgjWlpfEitTj9OCpCNQSQZ2vBRYA2omkDNFMmxzf7zD4XaH9BVFdzDjYm7uJxi29IhLrWP64Yxhy5cewAUaHxRRYC4NrYpcgcbLmhcoCCwDlhckHgqDKNI8XWU9MvEEZzkRe6JEdFBLoqYF8fn/fC0VS2Ti0ZHHBgKlBdKCmmUMBM2x6vP5YIPDbo+hM2zKGCMsW3LMUJ+yHk55Yny1bt1Yz6fOpKRIgC5IQMYE98LYoGQYEhk7XCBRkSNwlKlzr7IEaB3aQi4BReo8d1Wtmc2yz4lDhArXEoBEuAxmJx1BOlWMk4CJC0i8IkHkdiDhzI3o6BhEFW1mQZ6q7dkjpnEOgQvGvAAJrsyvUU+DuZIJxcLFcCajfFlqvMgdAg0oW4xUKox1yFSgZoJ4IBCxIEo1idNE3gARJpeuQFi0cCBzRjtKGL50yDxeQGcMWHB1Na4tZ46HejrZFvG5K4MkNbN4KSjQbSPer8X9dX9dga7sHp0nUWWSXQ91SkfN2FQTDL5EigCR1ZmNSSrVyuITma0nBSqPPm3blM81JKDOiC+c5LRNRuAq1RGwoIvLRulS83tV7MoMsg1lpk5tx0ZrwqYaEQqLEWDwHDnN2AcMkxA5UchcrYp4oLF2jgJlnOJCgwtWRYMLG3x5TUDGtoy8ihxcCTuXJDSARVtTZIryzy5UOCNIQ5C9hK3WhC09IvKKdWnpCcOehYfxefaHPfRYZAbWVhImcWUCJpvX1dbQqxMiX4To+VGEnaVUFHNq2cAQdSA1v75IbPnZGUnck8QbngtbZ7zaPmBLjgGIvQcBQxfy8WSH4UmH7qlAz2xli/JUX5mfqO8xsSjrl3mB5fbghYTncbfXsgo7a3m3bDOZ/tXBVj2ntyANUmQ5hHVJei7mrc1d7rafsK2mDL0uA6bPk03unV1AHhhaJ1nSpND50v0V8FdKfKBrafGaF6gHP03w8wXzbrm4u7aqwFL+rIxt/r2JM1bm/aTAhorZQDHZ8WycG/Lu4FPuBntsKkVis/kSLB9NL/Jgf4vwuaR1kq8jBT4QyMiyHMgpZGwRcToPhRe9gLC2GUDMFRrr3MU5fGBI+wE2kCBBRS4LTqZpzuS6PahcrQsN8bpB5UHMbF0z2Rb4WyO+ffke77Qf0sn9/LqE2MPQWX528Cr6gx6Dhw4zcqQdCUjkzBPkUWFJT/7ZBRqvHKxMif2+IydepNlpqyj7KxYtuA25auRqUEqAc6hhRHsY4ULDbCtkdEkxupny9sVn3Gk/oy9SAiEwKDoy4L0Z/PvwD3j05BxrxxCMLGaSYm1e1k+WJE6lLCGyQ0OgmxmhklN2Tnehad2L67k0iHp+3jlklFT5uFnakBIB+KBpC1AKOU0QZ2PslXNEW4rhq47rN/f49rmPeLP1BCOgJbL1Jj7mvyZv8Y/vf43wkxadPYsZpchpzaYUCREpGwZdxinElIzI8wEVsFkFgUviC8LzUy9PtWBQbuhEze2sGgUTXJgBE0mXycWQs2uSzvUTvnHuM74SPiyzSTPv2HOOT5ItfvDsLVoft+k98ZiRW6xqucrrLCuqRNstZgNVIMFasvMFEHglIfPWvhh2rjlByYV7BBKRWNJBi/hKl6M7itkbU757+QFf6z1gW03ZlAEdGXAvGfPz6TW+v/sOj+7tcP6Rp3WWxREukJQrzdcfyN2uUbhAkoaKk5ua6fYSN1hxKdfR2kkDi0ZwGSPmagDlc7mdqDMsUwdHtGk4fk2RvDnhu7c/4jvr/8vdYA+Tn83ExXwYb/Ov+2/z4W+usfaJJDxOEanHKZGlwrUojW0jJa4z3XeBJF7TROuK4e2US9cP0MuSHF94zDNn3uiUbk0u3qMkXktcoEj7AaNLiunrM7598xO+t/Ee180J6xLGjjyd1uf7++/wq/vX2PxQ0Huaoie27EUqijMFIoWqOFJA8nhNM7yomVz07Fw75K8vflDHAct0psig1GFsXV18Di5kmWGpE1/YhIbFVxkYcYHCtTXjnRZn1yXj12PevvE57w4+ZSdPeOxaxW7a5yfj1/jpwQ3u39+h+8DQOnGomUNFFhdIhBXIODe+hbcJdFkJcu3MxU7OK85uO155Y58/277PjdY+urG5FWP+nlXgyLd0wxgWzKwAVp5CbxtsRzNb14wuS9KvDHnn4lP+eONTtvSIiTMc+Q676RoPZhf40dM77N07z+ChpLOXFz9MU2JFkvt86zImKwGBxiuB7QXM1hSTCwK5PeUbFz6jp2bspmuVCtShaiPUnWNEHeXVgUwl5g55OsYHBiElrtfK0OBohohmECfY/g6jSwFHdyF8/YRvXX7Au/37vBbssa2mdKXgcWr56ew2P3j6Js8/OM/mx4LO8xQ9ycCOz9GiTLPgpoj/C4/ilSxjgKSnmZ6TTK+kvHlxj28Ofochwyn6ZfX0+da3eXc5z0AA322XJyESmxm+JMUHBrpthtdCTm9B584J37n6EV/pPuS6OWBbTTEiE/2fT2/y44NbPHm0Rf+ZpPM8xQwtsmZAC72vo70yCeJ8eWBJRxL3waxHvNI+K4kPhEXXDdR8783y0nSB5avwF6hEL9DYtindkBzNMogcBkSXB5y+aji541m7ecS7rzziS53H3G1lSC9B8JvZNr8c3eDHexnx3QeG8LBKo2UJkizgqQOfcrimqnqjsC2Ba3larZS2iklQZfFFz1v/lcTPYf6ScfVoq/asjC1iGiOiGb7bZvLqGgdvGWZfnvD1a4/4y633GaiIK/qIHWU5cYJPki3+7fBtfvnkKvGnAwbPBJ09h5lkQMfn1r7oLpGxxQWqYZPqUaVXEhsqnBY4DVJ4NsyE2+awJKuGBIsTnovclqnIPLjJGeLaBmE96nSaET6J8JtrTK6tsf+HBvflIX9/55d8tfOA6+aEIxuSeMWudfw6uswPD7/ELz67jnkQsvYYwiOLnhSMB2xzGwXxBbH1SLasCRShdwqTSYvncZ+hMwxdyNgHTSNY76qqu7460Q2JySu8oo6n8vKT77ZJL25y8nqHk9egffeYP7n0GXfbTwiEZehMWRd8nGzyo7273H+wQ/uhof/YY8YOFfuM8DyVLhNX5h29lIha+k2O0tIWCOux3Qz1OSNQsSc8kIzDNj9M7/LfW1eYJZrUFtHgvC7Xcf+KUVaPc6MjUoc6OAOlcL2QybUBJ7c0Z3cSbt3a5c/P3+NycIgRKWMfMLYBBsvjZJN/evRHHDzcpPdQ0X3mCI9rRi1PphbEl80buvl7McQsxbeD2oGAmTj8EQgnSZ+HjMIQkWYZZF2crtc5lF1VD2i4yWzmBn6wDuIEd77L8PYaR3cVyRsT3rn6mHfWH3I3fILBMvEtDtMeR7bLfjzgZ/uvcvS7LXrPMh/fOnWoyDUQnopzV1dYewsiyfTdBToXddnwBsVQsUPFhQTRaLWDmhFc2URQcDZ1jd+FY9EDbAwY3xhw8GWJevOUv7p2jxvt51wPDgCY+BYAn0YX+J/jK3zy9AL6Ycj6IwjOHHqWZ4NVZunVbLG5CiijTRHFiF5YuT4pawFXLcHK6s61Wj6gVkKGZsSW1rC1qln/4tl2QLIRcnKjxenr0L9zxJ9efMB319/HYElQDG2b3XSNJ7MN/vPZLQ4ebLL2O8XgcYoZ5fC11kgtp2kD1y8EYbnEiTTAhaYyguXLHaIhEdJ51FyjtpeiZgTniAYalZWFtlPr8C2N7baItlsc39a0v/mc771ynw09YducYrDs6CGJlxymPX58eJtffXyd7n3DKw8snf0p+nhaJU2WhM4FrHaBKguytqWADsKuYQOJawmEJbcVBU7xKOdR41kmvbmqZHT6MiFbCXU9c1oDRDK2VZdVkeFRmajZbovZuRZnVzWjmyl/e+W3fKv3IZE3xF6RoPh1dJlPZ9v84vA69/5vm/CJITzKC6EtRXKpT9LLrLXTWS3RtjKs7wykIbhW1nhh2x4feHxQHJRAtCxKO+xhi3BXM3jkCA8twTDJiCyCNUBGSRmbFBKzGAw5B6oJLryWlWco4vpZig8ymBmd83TOZ/n6Q9cl8Zozm7m447TL87gPQH8wZXTLE11VHAIysCht82k9xlik8Cjp6AYJvWBGR8dstSa0VVx2jPRlBGQ1gU01IvGaf9l7mw/MFTq7ChU79NEY3w5Kyamfej1ZoufBTqnvia18v1GltS0mKmJtr8CGMAhj1vQEg8UIWxZmjbD0VMS6nnDS75A4hZGWdT1hw4wxwpLUTLPJMW9fRhiREghLX03piji/5giFpSN82Vy1axU/b9/kA+VRSVZwLdN1ZR+DbBBevi9AbZTEl/pOpZdSZLG383ibqUDWCA3OeNbCiL6csqXGJF4ReEtHzNjhlAQFISS5GzEixWAz4vLTNMKR5LX0xKuSESavq4fF91q/QVYai3mQnOP+2TnkKGOklwLfDXFBgVE8wlXE15O4Sx1fI/tLUfnxVQu7ymBv2lEkXYFrW/omIhC23DBA7BWBsAxEhKn9Vic0O+2kJHLoTCkV2X9J4hUTqopu5A1jH5B4za8m13jv+CoPH5+nsy+RqcMZSbIRVlmiepZ6rmt0dU6wQHj5g2qa4GNRqoLtBSQdSdoRoHxJ8MSZcoND2yb2quzwyohMSiM58S0iZ8pnh66dNUC4bFuzXGImNmDmNKlXJE4xTgOeRz32hz2GJx3kgclC5j1H6zQvfhiZocckLUPyxsHmXmYxH2AdzJWWizoaWiJUlmC0rSzMBBB5Y9T7vSskXjN0Icdpl+OkwzANGacBqZNM0gDrJdPEEFvFLNHM4mytJNb4VOKdgDhLcxV5GZHmbi7NusqEE8gZ6AjWZmAmnvAkyxcUBRkXSGRkKy9WHOpc+L9UAsQ0RuSxPdAod3ujcDoPMmYec+Zp70om03X++dHXQXu88hkBadYgIVKBcKBikUFYl3eFpRAAToNxWU9Q0eEx/15hdT3vKskDpOpljPzG3EjnpiUzdkVyZi7v6VWtNLbQ0l4Tl0IditBTpg6iXCgiT+tMkLYltpV1jTkjqo6wNNt0RnB+EvOBZlIQ6RFzAtm4L+8vEmkWJTqTQeYs4Ekr9EgtuWNUA9C5QONCVTJOLxCf99I3uF8vY+XRmCQrenop0JPqHeOsb7D+7HJi5oOSZfcW9yz0GeWNWPXhtMR3Da6tG33CRctO/ZqoGXS98GKBrNLZK0fxjpEU2dtfzkOauf76O0Ll+8P5VEX3mEzm3kdoZuHLa8LlKTB8gwnVSxqLqlLfI4CIqxa54j2jwihmrbJJWv64bLysYFLnrCsaE+uRV/78fBpbWo+a2YVaXvMmUTZjzp94UXKHZq+BiNO8A2TFGx9xAtbi4xgfJ2jyFFjZ2aGyQme90aG4Xt9Yeb326kwaVm+cz9ca6q/VqygrasgoQU6TRl5xoWUnf7VlmUTW03ZiGiPipFJlu1z3/HSKj2a4OAFn+X/tswwRQ2UAxQAAAABJRU5ErkJggg==;direction=east;" vertex="1" parent="1">
          <mxGeometry x="370" y="80" width="170" height="170" as="geometry" />
        </mxCell>
        <mxCell id="15tyrJEF0TninloIky0N-4" value="" style="shape=image;verticalLabelPosition=bottom;labelBackgroundColor=#ffffff;verticalAlign=top;aspect=fixed;imageAspect=0;image=data:image/png,iVBORw0KGgoAAAANSUhEUgAAADcAAAA3CAYAAACo29JGAAAAAXNSR0IArs4c6QAAAARnQU1BAACxjwv8YQUAAAAJcEhZcwAALiMAAC4jAXilP3YAAAA5dEVYdFNvZnR3YXJlAE1hdHBsb3RsaWIgdmVyc2lvbjMuMy40LCBodHRwczovL21hdHBsb3RsaWIub3JnLxBUzLoAAAAhdEVYdENyZWF0aW9uIFRpbWUAMjAyMTowMzoxMiAyMDoxNzozMHp5nZAAABerSURBVGhDjVpbbyTHeT09PT33IYf3JTnk3rXSXrSSLK3s2AkiKxFgB3kJgrwlvyRIAsQJkP+QJz8F8Hscw7kYURDZVmzJsqzd1V5JLsklOeTcrz3dk3O+7p7lrtZICixWdVV11Xe+W31VPc7vfvcfJlBKARPHsaozmcAJohJRr5VOmDw8S5OUY+NURg3J+9G7Dv9N59X7miIeE9XjsWEYlUocnsznxGOsrvdtjqh8GT3gWhO+qr6U/dOgkA2cPDWOganthXe14HRR9tu7YxKVlPZ+iJQf1wNOqnk1ls+WbX42Wp1jRwHLYDqPgdb8LKbAVOf45+iJyHhJ4iDR6aZY6AU9GzGcPCb6xTShZJWSfpNOMpa0GgFxe1I3AAYiHmcTRIWSOJwwTMRM0imEaZfP8WIx0OfStO23oNPaZJ6ySU4NL002MOp3JIGY8GlSPWmPE2HENSXWBSDtIPREPEFYjuowQATDHLIeWnsCkgBjdf4KjoSJp1PyLDw+VY/PnIXvGsC4UwVzIoWJS5sSybEUpGqmdn7cpveSV00CX81GdCIhEaz5xTStK1tTyWZTRT4rqU2S/UpKAJvK8wVT8bieYJDkOU7L2bNJJgZgmYMti4jYBiN74bMmspc4nwAkhCeAWLduLqZ3InuUfSmPkRoyD8Zw+z5c1p2AdpcQxz9TK1svek/t07klbY/SzqSjnE0DfBYSSxpDLdGz8963/36SEKMULSK6o/J0EqGnk6mWAApYwlEmMSA1lJMgVzSfuvQqx9g4M6moHpK2MMM6iXYoqsghEQxVysCJDErCfIOkbM+n14rGaR3TNHVpDTH22+/93eQ5whJwGij0JNQm0xDOYckmiKpTYPrThFrEJCQvGHOdNhVkXYyLKfilFMaFKAdZEp3mYukQgc3PZ18AiZ8A0z3mPvMgZD2kpNlBgGKE7NXWNBOJJR+rdKS6pP393/vec5IzYDFAqYHqCbgExHOJ42wRgZJkpX6xQYuIccnDYNFDf5mqtEgVnKU6lpR9OIUAbmaMHKimYwdjP43mKIfWMEe1TcFt0p3XXWTrQO4kRK7OcX0C4dwGQLRIS6jqkbnE4GJv67z/re+RKqtHhJ5Oalcbx5qE4pwwwFTCsqTFBWJp+eU0hitZ9NfS6Ff5TtVHcaWH1UITy5k2lrNtLGY6WGDOUUxkB+rjAhrjPE78Ik7GJdSHeRy2y2idlNA/zCO/76JwQIDHAbxuBGaqkrHGPOdUmJz3f+dv2RNzIUlJf9IWg7N2Zk1qKiLpqEmuO+caqP6Sh2AjwMxGC5urB7i4tI8LM0coZkegeWEmNUDW8ZFzKDFmR56MqRbk0Q2z6DD3lCcZ7A0reNKbw93aGRzszSG9k0FxF8jXxvA6ckh8X+CURCurCggiU2LdwL2YNJCApZaqSx1NUgQTmorSLiglpYDOYDiXRm/VRW8zhHehh9dXd/H1ymPcLBxgNd1FJRUgw7BnNFGeyPlGTGZJ5YQ/cdGdpKlhdDCRt2G/gwE8SrSITzqb+PnhOextLyK1nUVpd4L8wRiZxsi2JdsTmcR0eWJpkOh23v+mwEUgXkzyhqbLMXzjhoxXnHFdDBcz6FbpJDYDzG62cKm6j1uLD/G1whOcSQ9A34ExwSiLJwMC6IQu+gRj5slFR6z3wwytzkGaUsxSmgVnhHxKsCcG/P5oGT9tXcAnB5vY31pA7qGH8naI/OEIbs+3rUEMNzUVONm8gZPN/bYkwKd7SaS8U5AnQbSp1nka/eUeLm7u4dbSQ9wqP8Er2RbmiCTgi71JiGbo4CTI4jAo4XBUxsmoiFaQw3DiIXT4forAKdGc62M23ceS18aK20LF7SFPoFwRB+MyPh+s45PmBn65fQ7+/SJm74E2SPVsEVyGXCSdUlFzLrFWUXICF/1FLS+RIkGpUWoaeg76i2kCo/d7rYdblx7gO4u3cTN3gmV3xFFjggKOA9oMHcPj4Tzu9lbweXMNR40ynIFrrn5C0COCG3DDLRSGWCx3sFGu40Khhku5A2ykTzDn9g1ck8zZDyq42z+DHz65jqf3FzH36xSKTwN60lG034pCbUEKEPpD85juhep7f2M9ShojcC+mGLAcx7jkYrBEb0hVXDt/hO+cuY0/KG1TDUNTv62xi8+Gi/iv+gX85/4VfPzgMu5/sYH6FwsIdgsIDrMIjrLwm1mEDQ9Oh1vF0ENnwC3Az5MpHOOmUaZar3otqim9LxfP0QmlUyF2/Hl60Rl4NReZNvdAeU4y0/ySSqlmLDn3YvX3I3CnQb0UoMBR3egVR2WCXA6xsNbAO5UdXMm0qHYePuqv4Z+O3sIPtt7Gzx9dwvb2MloHMwhrGXJUE3DBEYwor8e9u89ntrt9qlWXTmWUpZTyFrFUsn3Mpzso0vYYZNEGCYIo9v0K9lpzCI8zdCgCx0hIfkFhF83BIe1GPev04RT8qWzqqcFWj0tlJqmIwhtqCbjPIu+Ncezn8FF3Ed9/eg3/ePcWPvrFa+j8ah7ew6ztTbnaBFkSkWmJEIaBHdVDe1bONifcoJmPHWRrjFrqGRy3SzgYzaBOKQ7oUDIUS47etpwamU3mc0OE2Ti4UOafTh1hhqcLy9x0pJYX1yg5ok0GmlgNqEq9R2CmlqxxApPcLD1kwUE77WGrt4hPa2fx6dYF1B4vwN3zkKk7kXQEpENACqMUQo1YMpzyFEoN6Ug0P7NK2aGSthYUQsyWeqjmG1hyOwZOlIzJ2UO/jDutVXSOisgfUfoD0mrem6GbRrGeHHxTdn4y9AQmUAJnOQJo8aSEGO95avc6dMNPudjnM9j/eBWPflbF6PMSclspGrgAcb8zYAQTA3FJhCeJNenh2mOzFVeABbar8ZE0parBkAEBJaaTtCIYjwRoJ9PWIa9KRZyGglaSPjuGyVsyYBf9Sik79caxWBKbWexmFb4oUPSQSYSiawhJpXA4QfkxI44HzFsTeq5I/bw2Ce2KyAhUWsCGqqvdZ79Pb8ZMo4+uNEi4JEqgAkkTo4QYU3KL8BTBkIwM6ZhNUd341JnI8WQJRFomfDGtEgyDbYtrYzMiC1hhTtRRKVFROz4oaRKTJAmluxWXs3XawQn3pwbdMSWiNpMAs6QldYlAEQTfsdK4Kk+miSNNccnx9IABtMaSOLUzfoZHXc1xM5fNqTVHgAGDANnipO/yHY4UveqUAPSmCUdtVFODwAHRII06lQRY7YmaSuQkRDnNyNzrRQGsYry06swqJQExwDWCCUZ7D98xJ6VpaRsyBeHTnBqXYtZaIb1x6E0wUxjQU3ZtE1cin6imE0YyBdQGJUYlKa4lgbCD89hJXwCFIVrG5jNvGQGL0E+TmpgT4KbHUiMRK5VimUgzOmFLOsoEJYIFzCTF9zlG42QCzy5/OPdp0NSUcY7g8iEWC11Uc3XMuwMCDKQ4GFEp+2EOR90S/JZHpvJ9imfMaGlckIfkvJrKsESJkuMCIl5ZRIjgmOhpTqSn64A46rbDqAASkK4MUozQdW2gusWf8ljT93jAlKRiJlmO5zZiqHKKfMZF7k2lgOBauJg9YsQzpK3J5iS5EEPaWa02h8yTtJmFGCpAdnOnYFVJfkImxWxstEXEwbj/uaS25L0ErAAyhnM7Q+YBUj1G5wMCs4icQJUJ0Fyyst4RIGNM1GYnatk2ibHggKdymhMKC4xVeUQ6mzlhIE1vyf6C42Kf573f9JZx1CpRJWmTNA15XNlrigw2DdF8AmY3anRKRjXbpx4ySRynHBEQNU2TxifEnpJSZJ/sTCSicVbGTGGfZTVx8aDI4Jn7pu2dM4x6FkPMLbewUaijzHCLsT63AZeqmcad4TJ+9OQ1pPYyJjVtI4l5iImJhzR6lcgU7nwvUC5AcSjzUmBMCSOSuwwdOcJsmoSSWN1G2fbC9zWPJBPPlcxrYAnSNYnzJM723hLfWR/i6tw+NrzjCBgDazmSQxrdJ+1NtLYqPAkoZBPX4vVFihg31Y6I6WpPJe5+SoAW/7+SJhRTdJma58m7mEFQysCvZDEus84c6owVS9AWTsq4LdXnyfyoY8T4JZ4QVgJsrtRwrbiHarqNAulQIL5HOj/sruKLgzWkDmhrDUqN9mUe0pwI5xSgRIMSbaLaR5ITIGH6f+DSZJb1Hkt5vzDHU3RWB0b+cYFUj/bYjaQi27NFKSmToqQn4Dzsijl+kSf4ZcagKz1cmj3EZqaOBTfATCpDHqZxb7SAnxy+ykPqElzGngoQxFtJ224ISEO0BrnAdSyTgVrHIpTpZs30zFVzipjTkcjjrJfjfqmBnIfuMrwOo/cWpdEeItXlDjtiqKENW7aoucSPWGrSjiCfxmipiN56Fv1zAdZXj3G9vIcVngQ8GmXIcc0wi1911nFndx0TBeK1yNaMHpJgasjtJJIU59b+KWciMyHDUzZAHRrMUhepkXiZRZgRZN1RiiU27WNp3lFSircBA3QqJaDkIRMGibM6zXfP83hzoYFvnHmIa/k9HlCH3M9CPOL+/Yt+Bf99eBknuzPIH9IGGf1YcKAtiKpp4VsiMa5hcTKBKUuTon3udDoN5Ll6TOC0zlJAE6MWkxLA5lCY1SeVFzNiZiWSF7gBnUh4dog317fxzdKXWOEJQJayFxTx485lfH/v6/jy/hryuySUiiCJJ4KwxPmkmmb3Bdq5rtdjE9Ppgqsz8UEpirBF+Euy+mzQqbpQ6VkMslJ9rPJMpTv8SZbxvACqXcA1nKCCQppS89DdnOBMtY6rpT1UUgMMGUc+8Qvm9j+sXcKDe2soPoruK7VRKzzT/Y3szEI7rUkw0XeDyOYtvJOpia/2MCWWKamrFBeUNInS6XFq499UhaWOatMYezfiW5LsMxU5PK7k0K0ysr/mYO5SHTcXdjDvddENM2jRxnSN8MvmOWztLCN730N5RzfNimMVFMR0kE+mJfGjVVRXQeZFsSslZ4PilOxfX0mnQb2YJLVkDo2TpFhG6iGQWkySpB1wyxhWMuivOiheauGN6ha+Vt7Ca5kDnCfAIuNIRf13T1bQPSyCQQqPV9FGrbjVNmxKTJGQ2VhCF+tTddXapEGBgrE36ZgOfoHrz4FTnyaQ8cZALKmUFqg9Nmz74KgueU4a/qjkonGJIG/2cGVzF2/PbjGGrGEuRSdCl313yFN9fQMH+3NwD9N0HhFNxijyT+Ai78gHtVNKKkW/2bMYLXLUrPFGWJLiDksidpq5iCRgk8V9AhlLZfp9jMGtvmraRspsh1LGnoo39amqv0Jgmz42q4f42tw2LmcPzdbaE10ubeKHtRv4bOss/O0CvSMPqzwXmqppbi0rIXBtY57atD4LA8Z1JVXrF52J5CzpWYPFfeltIhVlJfXZZGqLxlufxguoVJMgTtug41N92Kf9rH2xgM6rE8xerOPG/B4uMOpf556mG60dfxb/Wr+Kn22dx/BeCaWd6KuOhVkxhTIZW59RifYwlbrTMerYZzafqKde06nc9h1TSxEt4jU6ekw4ZpOqrn4DkwxiMifCUnZVzFl8KZWUtGSPQTmLzuUS2rccXHh9F39x/iN8o/yAm3WTizvY8ufw741X8T/bm5jcL6C4F11XmPMQkbafiWGkM/EJok2M1RDRZnU9MMcAXQXV0WgmoVdHMsHpxCbp89T5iBm2IKUT383bxklvKJCQXQxpZ6z3NgpovzbBles7+KPqp7hV3Maq20SP3vH2cB4/abyCj7YvIXhQQnHHiYDpy6oI1p+YLxtL1pRD0dmx55OB8tCkRwDJdA6PVFTj5HyiPSqaJEJv5EeTakLVBVrPzBbHxRPYrwbCeAtgtqvs3hBOq2vEDZapjldSmHmliZvL29jMnTDKd9CljR2OZ/BR+wJ+uncRjUeM9p84yJ/oukJzR2tHwBLJERRLl1GQ2x7AbfRYJ0CO00cZ7asK1hMNE43P2ZypXaJycZEQbqCTesxVq7MiqYl75qJJxKScR/fyHI7eycO70cH16g7W8w2+NsFJWCC4rN0//qa2joPHC/D20pGN9cU8lsoMs3QnY5/KxExj7mkJjoyB42Ia4xkPo7ks/LmcnUzkpZWcD978q+izMZ/NMZBg45omEe2SrI0UoCliW8Skx/EGTt0kJOR+1qsW0biahvNGF++ef4B3K4+wQOehb24nDK10Jf7F8Rru3q8iuF00z6i7TruoTfYyzmVOSXRI7UibTuya3+yMebDEU8XSBL427XHKbq51JMocD4xJzh++/deCECdSaNJgTVyK6wYqnnCaxARy07gqIsjJsMAIf6OExg0eV17v4Y1LW/h65QGPMccczgMpJfapPiQen8P2vSUU7igCkYSiuaR2drqmTaluzo2g7DP0IvNCioB49qvQMc8Cc5U2VsotdAZ5HD2tIMf5Zh6Okd9p03dQNSU5I1YcMuOTCGKQysmzmmJwKk1N1G8qQt3vDzDamMfJm0WM3uzjrVcf4WZlh5s0w3mmRlDAAV3+j5++iodfrqHyK9rioxEyDdqonJIYRRrGRRfjWarZDMHMpzFYpFYs8Hy32MHSXBNrs3WcKTZQzg+wkmmjyADg5+1z+LeHV9H/uIK5LwIG2t2IPgOnWy1Nrj/pq9QzUUelBGCc7Atr4pppY+qTyjRuzKLz7hjnr+7hj9c+xbpXp8AnaAV5/LpXxcdPLmD/zjJyv/ZQ3Of5r+sjIO0C5JdoO5RQQCDO/BiZhSGK8z0sLFA6Mw1UeYhdzzSwzFP6gtvHvDtCnmHICaODf2lcwQ/uvYPGJwuYux2icEiGSS0/uPmXE7MdJXLOousXwcV6P01SSduHOJ76HswyEL7EPY4SW3v1EK8v7+BmaRtVr2HC/6xfxY+eXsOde5tw72e5SdO+6GX9yoQbPG1mgYPmqY5zPhayXSzn21gvNLCSbWE128QZr4lZZ4BCamTf6/TtoEAaQ3rdTwaz+OfaNfzHnatwbhcw8zik3XEumYtJTnuYqaWkQhCnwbE5utuMHi1pLIfJ9Y7poVrn6aG+1cO71+/i9fIu5tJdLj7EaJLG49EiPm+v4/bxGdSPSwh6lA5DsWJxgOVyE4uFDio5SiLXNWAzDChLDMkqqR5VbsT60L6TkyL7VhBQbXoE1Qpz2KfhfVh7BV/sVtG8V0HpESg1AhtFWmUOxYApi82nk4RFXAZOakvgkpQkrRBtPJNjhJ9Fg3vZ2Xee4E+vfIyzmZr91KJBVdReVqPLr/OMdjIoYjBOI5sKsJDXjfIJljMtAyGJ6CccOZZcgaToaocOJuaomCSb1W9VauMydocV3Osu42FtCb39Arz9NEr6CcfRGF4rMjEeDZ95y68AFBDt+rE3tKO8+iTVGORokfFileew6yHOXD/An5z9lA7kKfnA7WCSQTeg92SpLUAcF7FFd2hfTMtUM/vlAgHpw6JLMAJWIwjZqL6wtkJmMcknk9plNNoMChqMeJoF9E/ywEnaLmj1GSxjX5c4jy6nuNGL1mfeUoQb8VxCqhk7EXPzkpS4qDYF1BrHNv9MCZ31DOo3gaVrh/jzcz/Flcy+CVzc1qcolzYisj0C8FjPmIpJwXhKCOkVOU6xhH5gcxSUsNuv4KBTwUmnhGPmereIZqvIyMchEGZ9ne0TELcPffOzz1jku30C6/gGTgIxwTzbCjhCyTwfeZxITepI8uwekm0iNDUmgZ0R/OUIXO0NB9WbT/FnGx/jrfw2+UPgkh7jR3lLnuwMnOxG0tFdsn4KtTVYwFZ3Afv9GewT0H67gkEny7ldghAYLjlwmMlzhqqKOfVN3Tb7xAlKABZcRwGAeXDJQVuB2ZwAJOCkmpKOkiTFJPuyyxddgjJZBMGzmsIdqeXJDWDzxlN8t/oZ3i4+NnWTWjapVh2q5kASohc59os4GM5gd0AgBDNsZeA3ueH3yLi+i1Q7ZaBcOgQ5BX1KNqIpHSM4IVrSIgg7t4kefddj+/RnzARuX5k+eEv7XAyMLxjQ6J1nnpOlwOljujiviTTOn02b5FqvTLD42jG+Wf0Sb5Z3DNwRDX+fm/bT4SwOWzNotRlTtvIYNvUzDdphhyftIfmYgIglog+QUjNzZIYoosV+lsVkAKZgWZc0tafRfExyAsaAGv4Y/wvzRKr1hOVPfAAAAABJRU5ErkJggg==;" vertex="1" parent="1">
          <mxGeometry x="160" y="80" width="170" height="170" as="geometry" />
        </mxCell>
        <mxCell id="15tyrJEF0TninloIky0N-5" value="" style="shape=image;verticalLabelPosition=bottom;labelBackgroundColor=#ffffff;verticalAlign=top;aspect=fixed;imageAspect=0;image=data:image/png,iVBORw0KGgoAAAANSUhEUgAAADcAAAA3CAYAAACo29JGAAAAAXNSR0IArs4c6QAAAARnQU1BAACxjwv8YQUAAAAJcEhZcwAALiMAAC4jAXilP3YAAAA5dEVYdFNvZnR3YXJlAE1hdHBsb3RsaWIgdmVyc2lvbjMuMy40LCBodHRwczovL21hdHBsb3RsaWIub3JnLxBUzLoAAAAhdEVYdENyZWF0aW9uIFRpbWUAMjAyMTowMzoxMiAyMDoxNzozMHp5nZAAABdYSURBVGhDnVpZjyTHcf66q7qq+ph7ZneunZndmb1Im5ck0gBhU4Qovhh+sAD719gyDfhf+NHvfvGLBQMGbIi2YIkSjzW15HK5nJ2d++67q7uq/X2RVT09Kx+AYyc3q7LyiC8iMiKyqgs/evdvhgD/RlS4VqkeFgtW3G3WPXs+LLCFRVQYXk1l1+OkebJ+qsf72lxjz434LF+rkA5RGGSdbV71G2JYKlrTNVL/hP9xTLEwSDgwZQOLat4jTe2hFXXW5Byg+tpi7Kb2IseqqK3IOYp9dz0qtli2OMnGZ8XGae5s/lER8/pfwqNgUwLJBSy+jNd4bKyt4dpzKhooFofYXWvyEelazzRQk2Sg1Cayvvl1ro3sXjT0HHOQkMVbxl8+HzTn+BpjQjHg4890nVOuZY2XMPNioBMKmGXoUSIsopH55RLKadyExmgEJutu4wkGnmuza9XZvFfzuzZHrh4BywUsJvsESO3kljCyJi46MmHjwRUnCNWUPq+vG60GFAnWZ5E9iwGbRCWbOJvAaMzURKnG+Q6g6hEw3cu8xkvezqJxZnYl3vPa1tQSYjShBnoDglSRRjLwBHDNyjJw4+U6uJz0UCYjyrFpQZO6K8ZYVotMkvwbMc+bK+040pz5HpNGbA0JSuPYNzUr4rhMQLauPXT9Rlo1/txWyslZ0VgDycAZEzZRRtIIJxhp6aVBBkSkSoX9zXy6CbwOJdxloc2baUmCrCVx2we9vE/fFd47jbBk/U242QLaMmngk8fMogz01fqmQeMzazKBZdcfvPPX2SUpByHJc7JsBVfnE4p0eTWKfVlkTqScWeQmk81pAjEhunlM8iTb77mG1Te7Nnj8c4LXRdaqmv1sX7mpHWXXTjhubgNnC9kErkcOLHc0vwMuJ3VXM8dJC9qvacmjpDVODGgOmZvueKP9Qyfh9yk89htERSSBm9eL2d7WAI1zxSxHRIDO/FlnvJjGqGkjdrP+ds3aCtt+/P2/ylozykBcmaq0qOv8fow0Sd7OhZKKj7hWRH+SjFeJhcz3y4RVThGWBoi8xDR4jpADUgRksMS6MCDILoXS8eF3Uvgttjf4vJEQsBPIiIy/jHkByoGMrllEvL8GzkBIa+ptUsomEulaz18ijUkiD32C6sx56N7kpDdjBLM9YLKPlaiBhaCBSqmLahBjKujxvo4hNXXRq+BFfwYnlMR5v4rLuIK06VsZXJYwPCnBOyoiPAPBDgic+1h7VxrLQZAcMF6MgVObA5f1sw3rK0jpxnUcSUSkTT2mUcWzhCYYT/jo3PDQXk9Rvt3Ag5VdvDXzAuvRMWYKHVSLQ5SLKSaKXYSFPu8piCEFQns9SUs4SwLEnK/F+iSuWdntTmOnNYPvThfQ26uisldA5Sgh0ATBZR/+JYVHgef8mrcUIGVYIt4aOANA0n65ijPqSJMZd7lqJjjnBCSIAgZlD/GUh+YK99uDLh7e38ZPFr/Au5UdzLIv5YzBcGBjfUoj5b/BMEXM+X2uIzsZcAHd97ihusMSOqmPyzTCSVLD4+4ifnuxjG/3bqBJkP6RR6BDVPepSTovpWByIKYpbUHua2UoIm9z+YcfaWV5odyRCNDILWdkXkokzakoHjHwDiqe09qtFDO3LvDWjW28W9vDij/gfiqQyRRHZPYsCXGaFlEnA02COOH9CQG0hjRDrU+AJS7iI0FU7GPS62LGa2PGb2EqbCOoDjCoAe0q1wtKSDzOnlI4xJGnabli8vpqzwncWAzJXXVOuVMx01U/loSa1l5rrlBz60PMbJ3h7aVneG/qKU2wjZNhDU/bN3Heiyz+lGiaGjeg5uOBJyFj2u9gMbrEEsuC30SZZutTBYIsxvqMMw0KYZd789vuAr6sL+Lr/SW0n01iYhuo7g1oqoyX0pb4I5+mRR0IXvaWpj2SxZGXSOZoJklztJSJZVApok3NdeY58SIdxlwLC9N1HMpBtMoot2Q1BZocnURSRIFescxgH9B7JhE9aYWecTLG5HQba5NnuF0+wWJ4iTlqbKKo/dqjMctkfVwkFXwXz+NXF+v47PkaBt9UMfGMAGWidDhmXdqCZF2m6d1Zff+jkcmRtDGd/bLYvbXmf/zPWmkLrCglaVH//B771+ktTyOcHkyhz/3hHQbAEct5CcVLjx6vyHhYgNekYBo0wBY94nmAwVEZFycT2LucxvPuDA4Gk2giclrgUqVCgmohRo1Ap/02zbSLC6+MYwow7ZboRTknvW8xz04yDAZuxDgfGLgxsCLd23MzTWviorqQCbCZ/sKLyUSHhZoKG2CMooLbLHRqtDyU2jTLJp/Vda/FbRIbp+eeAjvjXKsrR1LBeaGChJ4w4t6V9lTKXKhSjM3rnqPGMDKFTiuC1y7a2oqHo8SaODJwZFIAiNaQ/y9EFux/E4S0y1oSs4lV2zmMzwSYbXkRSI/a9SlhJ2X2SQpkim0s5NmEBDqdhCGiV6B9MdbXGBtnKTE5mIga1F7s0/bO0ipOBxM4bE+gyLgYtDQPHSHz2lw5DhwpZzTXTO5A7DZrMxtRpf+k4fyBCcdpQz5DTNLhwRNQXQuoXQvUVZtMWSmX+ppw6UU1h0D3E4aDYYgutTcTdXHTb2CS2hOwehLhnNo969dw0JrEsF5i7KN1NDkX91qer5r3GHlC1lbMa4pp9+xamyizaVO/zCArlvnrdMAFFIO8Hr2eTgpW0lFRW6neR3DBUneZh9+VdulcaMoy6VKd3rge0CnRRPsVxkGf/FIwNBmPEpikLZdp0wFTOknGjlk5v5njM3Bmjv8PUpBXwuw3uih26I6tDAyUQHo6IWTg7LRA8Aa0zT7q19axh7UEwrk8AbTckgB61CL3oSQq7pRGDcm9wGnfTdOTlmjburdYJwwCp+OR4hyVUXTnIdoCtWGUafD/IhNIpj3akIF05zOWdmzXBbXnmqVJqrZMX0XrycxziyFnMluZaongxLC6cAsyZaNmqS3eImA9RXDynJzVwgsvzcxl0mZhpjJVGqFCMlOTNmhWo9TLGHHPR6R7tfPCBXTOJkbZZOOy4uZhkflmgCRIO3hmpmNSJkl70rhpnftSZ0QEQ0xUupgLmphmtiJginkMIMZ4i1lOr5+HAo7r0ZlwrB1YuV4xD9q/QyY2MZOVbJAxKtACIyZL9F9lHlxUIi6r/FSaz8ePjxM+jiswtxyRmBAwmS6FofskokaqQ0TTHaxVzrBUuqAziekpdSosWNJtToWniqTjWcgpUuM2XsR1VJgyuHsjNWYmauhFAjFOXNzImGdfAkmqAfpToZXBRIhh6DvgAjk2XADt9UMmoJHgqGXNK+BJWERvmhnQ3ABzsw1sVE6ZljUIDAwFTBZYGsMAO70ZnDeqKF0Wba/K/GVFSubzd5y254wynnMys7CL7EHej2QmxnszP+0naUaPtXc4uQ6tqQHkvYQjkBpnoJzgTHg2t0DpIZni4VYnjM4iMLHUxIO5A9yLDqm1rskoLFAXPDUcMoN51FjB5VkNwTkB0wObVdCKzGtqPfIh0zVSnLpGYkqUt8t8R4LImFMfmphs3W/SbOo9O2epeE16UO0BjdHC6iqw2qO6p3STMoVAM9aeTaWxKR/tmwS5EuPB8h7emX6G++Exk2l6Cw5SXD1LA3xF9I9PlxEfRwjPOVypH52R5pXg7URDoY82nElYlNc5vQxSlQrbnWeiNDNv6clLtnootOm+2KZXD6bd/0ZjTjjUGh2KTvK9aaZei8xNN2Osbxzi/fnf4p3yd7jlM5bRLLiasfIknsWvL9dwtDeD0oFHcM4JmTVpXq5nb9/0rtOYzMxmfH8YabYcXE4COQ5UmlERswTxP5Esw/aEBMI/hYvSccsEE0/QQWwQ4L0eNrYO8MHSY7xT2WYs45mQfSsUAq2MB1ngF40N/GZvFelOhMqh8lWC0boZmxKaXuAaSLfptRp51bUV3libnrlBOVDZtpEcgTQiB6H4JQ+oPgoLKpojF5oJhI/lNGSCMkU1E2hMjTXX2Ha/i7v3d/Heza/xWvkFk2MeWrnHAjr/ckGvIsr4l/oqfrG9Cf/TGiafDZndOCciB6Iich9ytB5BmreyG3s2pkWnURePxtqMcd4LjCSWTcSHrq9CQciQEBCAhumR+mV9DSCf9Wd5Ct+o4XKrhP6DGLc39/HDm1/hXR7Qbpcu6TwKNEe5hCH2BxX80/ld/N23b+Ps6bRpLDp3aZuUIg+bkkcTNjVmxLU5OmfuOhmwrFyjvE1aykltCsamLZb8mYBrQQOVLcq1+jUfjTs8w71eQvJ6Bw8e7uD9xcf4QW0bd3gu4tlX+4XOI8HXDNI/u9zAz56+hm8+v4XakyLB0Vx5OFV65zFd85h8K04K3AgLq8IHb380NFPLpJqT05qYdIzmXs9p2RVJyUBlWjaN8tqkx/4y2VzTuVYVJi7vhGjcG2Jq6xxv3/oOfzD1FHfpFefp8uc9j3vMx/PBAI96s/j4cgv/sXMHF5/Pw9/xEZ0kCC8JjE7D8ajw4HjR6dv2tvgVrzk4h9pwOCKf5kGFTfU4eAPH5l7sAGRmmAYlB1DAtBjnVNaS8llS8dBeKKFzE4jXB1i4c4o/XPkGH0x9iWUG6YkiNcr5S9xfDFL4eWcO/3DyGr54so7+dhUTT5iN0XmYpizVokmKL7EkcNmaJmixLf7y95bXGWeReam2CVjLvOw5//iID5xAMnPT+0NpxnLJDkGzTssB4qVJ9GZ99GaYNq0NEd5tYG3+FL83u4s3aju4Gxxxf/EAypRKTmOfp+v97iT++eQhvnq2jPKjEJWjFOEFrYRriwkDpzimdEttJnjyx9osJLegD9/6qdNjxuSIXgJXoHu1PaQ2MzEG4IhZiJ5JS/KamiMzSWkwXqigeaeK1h1Oc7uDleVTvDqzi7uVI6wGF0yGO9xbCepphLNBDU87C/j0bA3bR/O42J1EZbeI2q6AudOFpVUCZ0cqtjGWjSxKfLC2bxXMjkzQH74pcBnTY6ByWzaS1sR0X+cKqp1nJnBv6IOHBWbFFR517Bkn7s+U0VlgUF4l67cS1NYbeGVlF69PvsB6cEIzrBNYjxobopmW8Fl3Ef92sYkvD1ZwtDOL4V7IveXeu/gsOtBa7qhgJ7npbKjshwI1EjBdZ+sPpiI6rRzcuNYEjnTl/nXDSpvVJuD8lcCBkvn1+xjGBBYGSKYq6Nyq0mH4iJlpLC2eY3XuGIsTDdyv7uNheMDA3LO3WZ1hiMskwDfxAn5+voUvdlfRejaJ6Bnj2jFP5DzTpfrSyvVKLac5mZtiqsdDcUHgyINzaPzT3qdCEibuvbkA7Rs+wb3xl05zOckMrRCTvJEmlNqlfjM9dhd+ARZYTj6gBns3InSXQzTvsYn76sdrj7FJ89ssn9DwCnTvdaz4fTQox+Okgl+31/G4tYhH58s4PJgGdqmtgyKqe6lpyiOIhI5I6ytXFDg78MpKlA1JW+LFLEzs8F/ILGc2RGuJicEGn3/4+l+MkFlnXXCAUQbSGiUAmWf3ylkkUzS/xRDtRQK8RaaWO5hducCbcy/w/YnvDNCU10WDGvLIgXLEJ70FfN5cxa+ON/DicBaDvQoDMhV/Kg1RY02aomKWBJqtbScPCVd7W05MzdxTVpNH23ukPoE1VwIwQ4O32ZZZUnMk21OaUCAoLbNfteteFyr6j/tOjqS7UqN0QnTWU1RWm1i8eY67s4fYorb0fn+SziJkNq9XcZf0gkc8pjzvzuERs/kXh/NoHPC4wsQ3OnGvFSyzFwAag70lIyD7VMU2OQ/zgKQcnB2pzLxcLikNtleZGHBLdB708MrmLkPBDz6icUsqlJYGckLzNJpBkwuQ/uhEBKpfLaJ7I0Bz08Ngq4c7K4dYnz7DRvUEaxT/VLFNt86jCw+UvVQMwL69/fJ8A4/3l9E5qKJwyGB8zPSq7kDptYIzNSdMewcqLbEWTypiXmS5IwWvV/lmWWoj/0lZyTeTg7u0gocXeG/tGwfOuXKq1iTFopglWxZQSigpM/+bLvGsRQ+51UdpIcZwqYcHC4d4Rx89aHoVL2aKy31iiRPwjOa33ZnFWaeK/cY09nbmMDwIaX4FhGeMdw0KU9Yk4ZNJMWgay0AZCY8Ez2IdM6C6d+9h2CYLoxeNp0qor9Oi7vWxdP/IThZXcc7MLyucyCbg2AHdurxPc9VDvBXjze89wWtTVDmfyfTk2nVS7lBbhwMG4P40LgZVxqsVHJ7MoHFITR2XEFJTMj97P8mi95daVwmvQEhzFr9ojrY95MyMeYdLfe2MxrTLLInP7ORNDSokdZkoNNboUO7GuH/vBf585ZPMW3KiVNpix1GexonkFeObVTRuldC6l+LG/WP82d1P8PvRDnQU1JcX9qQ8imgmIYPwPD4+vYud5wvwDplGHdKtHwHRqd5N0vopYfO+ZE7Cs3V47YTLNt1TMyPK9pkdZyhN9+qQGpfbJ79phakdPaR9AJ1keneD++52guWtY/xk/RM6lcX37FuBpU9yvbJlLlSkbdvRhOpuL9EE1mNsre7jfu3AXobW0zKziiqOEjqKeA6fNdfw70eb2H52A952hOi5h4kXCconNOOzDnwWr0XTzd5ySUOW1evdfnZvgFW07zIBFxlLXezNhCLfoBCUZyLkN491Frp4TDofRPjP3hLBLenLaqbmDFguWUlGttxaKaC63sIbN5/jXuWQWXvPzJL64Ok4QIvpU50TNlhaTHzjoMB9qvHc6LWCvRXrLVR5MA3sS+zQo8nzOGMgmSeKyLrTFCe2l00CyaynoASB2ZDWc8AdfwJnb5fJt+7tpaza0yL8ZhH907JCAfecTEGo7URLD2cLpAyIZJwB8eLVITZe2cefrHyK71W3wVOYfbtu2/drxhWCO6cWD5n0nsQTaPUC9GOaysBDcxDgPC6j1YkQtMlnq4giC7qUeJfOiopRIqyDpzynPkXpPaQ+hthba20PxTRzcM6icu+p0wZ72p9AymP2q9SoUl6Z/4dv/JTeUm6LDbLj7IiiH5npiNJapot92Mfr97fxpzd+g1ejPdsiCfdZIw0pE0qT99p7PYLVPuwk9K6sbU4+bCbSLGMQQdb7vI4jE4q+2KBfRIn7Ub9D6cQlNPshzvoVDCkAfbkJGnRA+r53yX4XxKi8Uias8EGdmIlqHYJJI5kqeRdDBi5PnNVB0qDb19so/UBGvytR9tG908fGnQP88fIXeBDum+um/Agi4BypZfe1Qhch96Lm1a8RBFYCKBdj59H5/yVBKv41qWmzIHLRY+IsK0x45BEVKCwJ7KJTwYvWLC57EU7jKraPF9B7XsPUsyFzzwS+8s18zypD4ZZKmDUN9eslB8eFAov+ZFh7Lv95k3665H44Q3BLlOBiG5s3D3F7+hjlsj6jUuipgr3AtbHoX2K+1MIcD546m0mfXN6ylBmGCn12Eli9ClftNK4o5PpJHPrYwdWZWPN4Qyto0Wl12V+/fPj74zfxy682EX0SYvI7nsaPeVwy7RFJBiZ3LhY3Zb7SnHkZORRlASz5K+lEhSB7U5TwNB3DhBwES0RZlFJMlHqIAnrDiCWk9MIhojC2LEXfrif9Lqa50RaiJkKPEiYDFB8dUmwadec57h8+kf6Uf4YZSP0krFb06ZUTPOd+/tvDP8K/PrqP+Y99TD7vIditYxgFzgwJyMxUHl78yyTlfExz0poaBS6zVwOb1fqV0KDMWh8oCDblyqk8Hi1JhZblriWxgExGBBpR+sGQ/SkMgq75MWYIVB/rp8MOpspt+4JT4RFI2q1Ru0oKlBCEHj0kYUufB3EFX7UX8I87r+H08SzmPifonS5DS5vgKBJ9fNE5j9rT98GcDJzlliQHRLsjowyYwDrwBCGV64zFdvslntpl4uzr+rFPILDZcxb9Kk/gIWH4BGrPVQQamC5zvxJwrUygNPdSeYCB+uv1OGXU5p47qU/ifH8C5R3FzpRJAV1Rh16U64tPI4LJP7LQ7tkwxH8BPVEXG/Ls9GsAAAAASUVORK5CYII=;" vertex="1" parent="1">
          <mxGeometry x="580" y="80" width="170" height="170" as="geometry" />
        </mxCell>
        <mxCell id="15tyrJEF0TninloIky0N-6" value="原图" style="text;html=1;align=center;verticalAlign=middle;resizable=0;points=[];autosize=1;fontSize=10.5;" vertex="1" parent="1">
          <mxGeometry x="435" y="260" width="40" height="20" as="geometry" />
        </mxCell>
        <mxCell id="15tyrJEF0TninloIky0N-7" value="顺时针旋转10°" style="text;html=1;align=center;verticalAlign=middle;resizable=0;points=[];autosize=1;fontSize=10.5;" vertex="1" parent="1">
          <mxGeometry x="605" y="260" width="90" height="20" as="geometry" />
        </mxCell>
        <mxCell id="15tyrJEF0TninloIky0N-8" value="顺时针旋转10°" style="text;html=1;align=center;verticalAlign=middle;resizable=0;points=[];autosize=1;fontSize=10.5;" vertex="1" parent="1">
          <mxGeometry x="210" y="260" width="90" height="20" as="geometry" />
        </mxCell>
      </root>
    </mxGraphModel>
  </diagram>
</mxfile>
